<svg xmlns="http://www.w3.org/2000/svg" viewBox="0 0 321.61 304.84"><defs><style>.cls-1{fill:#5e0e2c;}.cls-2{fill:#e3e0db;}.cls-3{fill:#6897a2;}.cls-4,.cls-6{fill:#fff;}.cls-4,.cls-5,.cls-6{stroke:#1d1d1b;}.cls-4,.cls-5,.cls-6,.cls-7{stroke-miterlimit:10;}.cls-5,.cls-7{fill:none;}.cls-6{stroke-width:2.79px;}.cls-7{stroke:#6897a2;}.cls-8{fill:#1d1d1b;}</style></defs><title>logo_final</title><g id="Calque_12" data-name="Calque 12"><path class="cls-1" d="M454.82,528c-39.65,9.92-89.93,21.53-129.58,31.44C287.32,512.4,211.88,437.07,174,390l-19.16-90.1,181.62-26.25c22.39,35.11,92.93,96.81,115.33,131.92Z" transform="translate(-137.69 -268.45)"/></g><g id="Calque_11" data-name="Calque 11"><polygon class="cls-2" points="0 228.84 22.63 109.01 212.27 77.86 234.89 188.07 184.91 304.84 57.37 267.6 0 228.84"/></g><g id="Calque_10" data-name="Calque 10"><polygon class="cls-3" points="93.13 90.21 155.42 0.67 321.61 44.59 299.78 142.82 216.28 219.86 125.79 142.83 93.13 90.21"/></g><g id="Calque_9" data-name="Calque 9"><polygon class="cls-4" points="313.92 150.52 272.39 257.61 166.64 299.21 61.44 261.28 15.27 156.45 56.76 50.91 161.95 0.55 267.71 45.24 313.92 150.52"/></g><g id="Calque_8" data-name="Calque 8"><line class="cls-5" x1="161.95" y1="0.55" x2="166.64" y2="299.21"/><line class="cls-5" x1="15.27" y1="156.45" x2="313.92" y2="150.52"/><line class="cls-5" x1="56.76" y1="50.91" x2="272.39" y2="257.61"/><line class="cls-5" x1="61.44" y1="261.28" x2="267.71" y2="45.24"/><line class="cls-4" x1="53.45" y1="111.48" x2="56.76" y2="50.91"/><line class="cls-4" x1="117.45" y1="44.48" x2="161.95" y2="0.55"/><line class="cls-4" x1="211.45" y1="44.48" x2="267.71" y2="45.24"/><line class="cls-5" x1="272.45" y1="110.48" x2="313.92" y2="150.52"/><line class="cls-5" x1="272.45" y1="201.48" x2="272.39" y2="257.61"/><line class="cls-5" x1="208.45" y1="262.48" x2="166.64" y2="299.21"/><line class="cls-5" x1="119.45" y1="262.48" x2="61.44" y2="261.28"/><line class="cls-5" x1="53.45" y1="199.48" x2="15.27" y2="156.45"/><line class="cls-5" x1="15.27" y1="156.45" x2="53.45" y2="111.48"/><line class="cls-5" x1="56.76" y1="50.91" x2="117.45" y2="44.48"/><line class="cls-5" x1="161.95" y1="0.55" x2="211.45" y2="44.48"/><line class="cls-5" x1="272.45" y1="110.48" x2="267.71" y2="45.24"/><line class="cls-5" x1="272.45" y1="201.48" x2="313.92" y2="150.52"/><line class="cls-5" x1="208.45" y1="262.48" x2="272.39" y2="257.61"/><line class="cls-5" x1="166.64" y1="299.21" x2="119.45" y2="262.48"/><line class="cls-5" x1="61.44" y1="261.28" x2="53.45" y2="199.48"/></g><g id="Calque_7" data-name="Calque 7"><path class="cls-5" d="M209.23,423.87l-18.09,44.07,45.54,21.44,20.46,41.56,46.57-15.43,42.43,15.43,22.15-43.82,41.85-17.18L395.34,421l14.79-42.09L366,355.52l-16.89-42.58-48.28,16.45-45.72-16.45-20.71,44.84-43.29,22.16Z" transform="translate(-137.69 -268.45)"/></g><g id="Calque_6" data-name="Calque 6"><polygon class="cls-6" points="257.65 152.57 230.59 218.66 166.02 247.05 98.99 220.92 71.53 155.41 96.73 89.32 163.17 60.93 228.34 87.06 257.65 152.57"/></g><g id="Calque_2" data-name="Calque 2"><line class="cls-7" x1="120.58" y1="154.34" x2="211.45" y2="154.18"/></g><g id="Calque_3" data-name="Calque 3"><path class="cls-8" d="M286.08,441.93a6.08,6.08,0,0,1,1.54,2,5.92,5.92,0,0,1,.54,2.51,5.66,5.66,0,0,1-.48,2.32,6.4,6.4,0,0,1-1.29,1.91,6,6,0,0,1-1.91,1.3,6,6,0,0,1-4.24.17,6.22,6.22,0,0,1-1.66-.87,6.43,6.43,0,0,1-1.34-1.32,5.32,5.32,0,0,1-.85-1.69l1.21-1.55a4.42,4.42,0,0,0,.43,1.66,4.84,4.84,0,0,0,1,1.35,4.3,4.3,0,0,0,1.41.91,4.51,4.51,0,0,0,1.71.33,4.45,4.45,0,0,0,1.77-.36,4.55,4.55,0,0,0,1.46-1,4.62,4.62,0,0,0,1-1.44,4.35,4.35,0,0,0,.36-1.75,4.43,4.43,0,0,0-.53-2.11,4.49,4.49,0,0,0-1.43-1.61,2.89,2.89,0,0,0-.37-.25l-.62-.37-3,.25-1-2.79L279,439a4.73,4.73,0,0,1-1.15-1.6,4.68,4.68,0,0,1-.4-1.91,4.6,4.6,0,0,1,.37-1.83,4.71,4.71,0,0,1,2.5-2.51,4.56,4.56,0,0,1,1.84-.37,4.75,4.75,0,0,1,2.7.81,4.48,4.48,0,0,1,1.74,2.2l-1.15,1.43a3.19,3.19,0,0,0-.34-1.13,3.4,3.4,0,0,0-.71-.95,3.28,3.28,0,0,0-1-.64,3.36,3.36,0,0,0-2.5,0,3.06,3.06,0,0,0-1,.7,3.36,3.36,0,0,0-.68,1,3.25,3.25,0,0,0,.11,2.73,3.67,3.67,0,0,0,1,1.18l.25.16,3-.31,1,2.91Zm-3.14-1.18-.4-1.12-1.21.09.43,1.15Z" transform="translate(-137.69 -268.45)"/><path class="cls-8" d="M306.64,452.5h-1.86L298,443.79l-5.38,6.82v1.89h-1.49V430.77h6.25a5.41,5.41,0,0,1,2.05.58,5.89,5.89,0,0,1,1.62,1.21,5.48,5.48,0,0,1,1.07,1.68,5.25,5.25,0,0,1,.39,2,4.83,4.83,0,0,1-.17,1.26,7,7,0,0,1-.42,1.16,7.08,7.08,0,0,1-.64.95l-1,1.32q-.62.81-1.34,1.68Zm-14-20.24v2.29l5.36,6.88,2.26-2.88a4,4,0,0,0,.78-2.29,3.82,3.82,0,0,0-.28-1.46,3.77,3.77,0,0,0-.79-1.21,4.58,4.58,0,0,0-1.21-.88,4.43,4.43,0,0,0-1.53-.45Zm4.4,10.32-4.4-5.61v11.22Z" transform="translate(-137.69 -268.45)"/><path class="cls-8" d="M320.53,451a9.34,9.34,0,0,0,8-4.37l.9,1.21a10.26,10.26,0,0,1-1.72,1.94,11,11,0,0,1-4.56,2.39,10.82,10.82,0,0,1-6.73-.48,10.79,10.79,0,0,1-3.46-2.25,11.09,11.09,0,0,1-2.39-3.42,10.47,10.47,0,0,1-.9-4.37,10.74,10.74,0,0,1,.81-4.11,11,11,0,0,1,2.25-3.47,10.75,10.75,0,0,1,3.42-2.39,10.64,10.64,0,0,1,4.37-.88,10.21,10.21,0,0,1,3.39.53,11.83,11.83,0,0,1,2.59,1.24A9.85,9.85,0,0,1,328.3,434a10.14,10.14,0,0,1,1,1.21l-.9,1.21a8.93,8.93,0,0,0-3.43-3.08,9.64,9.64,0,0,0-4.45-1.07,8.68,8.68,0,0,0-2.23.26,9.77,9.77,0,0,0-1.71.6,8.29,8.29,0,0,0-1.52.87l5.83,7.63L315,449.18a8.74,8.74,0,0,0,2.53,1.33A9.11,9.11,0,0,0,320.53,451Zm-9.36-9.36a8.9,8.9,0,0,0,.42,2.85,9.77,9.77,0,0,0,.95,2.08,7.45,7.45,0,0,0,1.36,1.71l5.15-6.63L313.9,435a8.11,8.11,0,0,0-1.36,1.74,10.74,10.74,0,0,0-.95,2.09A8.76,8.76,0,0,0,311.17,441.65Z" transform="translate(-137.69 -268.45)"/></g><g id="Calque_4" data-name="Calque 4"><path class="cls-8" d="M283.65,406.27l10.15-13.05V415h-1.49V397.47l-7.77,10,1.67,2.11-2.57,3.25-2.57-3.25,1.64-2.11-7.74-10V415H273.5v-21.7Zm.71,3.25-.71-.93-.71.93.71.93Z" transform="translate(-137.69 -268.45)"/><path class="cls-8" d="M307,406.27l10.15-13.05V415h-1.49V397.47l-7.77,10,1.67,2.11L307,412.78l-2.57-3.25,1.64-2.11-7.74-10V415h-1.49v-21.7Zm.71,3.25-.71-.93-.71.93.71.93Z" transform="translate(-137.69 -268.45)"/><path class="cls-8" d="M330.73,413.47h1.36V415h-11.9v-1.49h1.43l3.63-4.68-3.66-4.68,3.66-4.71-3.63-4.65h-1.43v-1.49h11.9v1.49h-1.36L327,399.39l3.69,4.71L327,408.79Zm-7.32-18.72,2.73,3.5,2.76-3.5Zm0,9.36,2.73,3.53,2.79-3.53-2.79-3.53Zm0,9.36h5.49l-2.76-3.5Z" transform="translate(-137.69 -268.45)"/></g></svg>